# xmcd CD database file
#
# Track frame offsets:
#	150
#	15777
#	27782
#	41939
#	57158
#	71252
#	86108
#	98447
#	113572
#	126257
#	140713
#	152721
#	166187
#	178652
#	191477
#	206318
#	216846
#	228367
#
# Disc length: 3173 seconds
#
# Revision: 0
# Processed by: cddbd v1.5PL3 Copyright (c) Steve Scherf et al.
# Submitted via: CDex 1.51
#
DISCID=e70c6312
DTITLE=Various Artist - Violon Jazz #2
DYEAR=1996
DGENRE=Jazz
TTITLE0=Svend Asmussen - My Melancholy Baby
TTITLE1=Svend Asmussen - It Don't Mean a Thing If it Ain't Got That Swing
TTITLE2=Svend Asmussen - Ring Dem Bells
TTITLE3=Lionel Hampton and His Orchestra and Ray Perry - Smart Alec
TTITLE4=Eddie South - Eddie's Blues
TTITLE5=Eddie South - Lady Be Good
TTITLE6=Eddie South - Fiddleditty
TTITLE7=Eddie South - Concerto Pour Deux Violons En Ré Mineur
TTITLE8=Claude Laurence et Son Orchestre - Minor Swing
TTITLE9=Django Reinhardt - Vous et Moi
TTITLE10=Michel Warlop et Son Orchestre - Strange Harmony
TTITLE11=Michel Warlop et Son Septuor À Cordes - Harmoniques
TTITLE12=Michel Warlop et Son Septuor À Cordes - Oui
TTITLE13=Michel Warlop - Christmas Swing
TTITLE14=Emilio Caceres Trio - Jig in G (Beatiful Stomp)
TTITLE15=Paul Nero Trio  - Solo
TTITLE16=Helmut Zacharias - Gut Gelaunt
TTITLE17=Marshall Sosson.  - Humoresque - Old Folks at Home
EXTD=YEAR: 1996
EXTT0=
EXTT1=
EXTT2=
EXTT3=
EXTT4=
EXTT5=
EXTT6=
EXTT7=
EXTT8=
EXTT9=
EXTT10=
EXTT11=
EXTT12=
EXTT13=
EXTT14=
EXTT15=
EXTT16=
EXTT17=
PLAYORDER=
